<?xml version="1.0" encoding="UTF-8" standalone="no"?>
<!DOCTYPE svg PUBLIC "-//W3C//DTD SVG 1.1//EN"
 "http://www.w3.org/Graphics/SVG/1.1/DTD/svg11.dtd">
<!-- Generated by graphviz version 2.47.3 (20210619.1520)
 -->
<!-- Title: dependencies Pages: 1 -->
<svg width="234pt" height="174pt"
 viewBox="0.00 0.00 234.00 173.80" xmlns="http://www.w3.org/2000/svg" xmlns:xlink="http://www.w3.org/1999/xlink">
<g id="graph0" class="graph" transform="scale(1 1) rotate(0) translate(4 169.8)">
<title>dependencies</title>
<polygon fill="white" stroke="transparent" points="-4,4 -4,-169.8 230,-169.8 230,4 -4,4"/>
<text text-anchor="middle" x="113" y="-8.2" font-family="sans-serif" font-size="14.00">dependencies</text>
<g id="clust1" class="cluster">
<title>cluster_ApplicationsModule</title>
<polygon fill="none" stroke="black" stroke-dasharray="1,5" points="8,-32.8 8,-157.8 218,-157.8 218,-32.8 8,-32.8"/>
</g>
<g id="clust6" class="cluster">
<title>cluster_ApplicationsModule_providers</title>
<polygon fill="none" stroke="black" points="16,-40.8 16,-92.8 210,-92.8 210,-40.8 16,-40.8"/>
</g>
<!-- ApplicationsService -->
<g id="node1" class="node">
<title>ApplicationsService</title>
<ellipse fill="#fdb462" stroke="black" cx="113" cy="-66.8" rx="89.18" ry="18"/>
<text text-anchor="middle" x="113" y="-62.6" font-family="Times,serif" font-size="14.00">ApplicationsService</text>
</g>
<!-- ApplicationsModule -->
<g id="node2" class="node">
<title>ApplicationsModule</title>
<polygon fill="#8dd3c7" stroke="black" points="178.59,-149.8 175.59,-153.8 154.59,-153.8 151.59,-149.8 47.41,-149.8 47.41,-113.8 178.59,-113.8 178.59,-149.8"/>
<text text-anchor="middle" x="113" y="-127.6" font-family="Times,serif" font-size="14.00">ApplicationsModule</text>
</g>
<!-- ApplicationsService&#45;&gt;ApplicationsModule -->
<g id="edge1" class="edge">
<title>ApplicationsService&#45;&gt;ApplicationsModule</title>
<path fill="none" stroke="black" d="M113,-84.91C113,-84.91 113,-103.79 113,-103.79"/>
<polygon fill="black" stroke="black" points="109.5,-103.79 113,-113.79 116.5,-103.79 109.5,-103.79"/>
</g>
</g>
</svg>
