<?xml version="1.0" encoding="UTF-8" standalone="no"?>
<!DOCTYPE svg PUBLIC "-//W3C//DTD SVG 1.1//EN"
 "http://www.w3.org/Graphics/SVG/1.1/DTD/svg11.dtd">
<!-- Generated by graphviz version 2.47.3 (20210619.1520)
 -->
<!-- Title: dependencies Pages: 1 -->
<svg width="246pt" height="174pt"
 viewBox="0.00 0.00 246.00 173.80" xmlns="http://www.w3.org/2000/svg" xmlns:xlink="http://www.w3.org/1999/xlink">
<g id="graph0" class="graph" transform="scale(1 1) rotate(0) translate(4 169.8)">
<title>dependencies</title>
<polygon fill="white" stroke="transparent" points="-4,4 -4,-169.8 242,-169.8 242,4 -4,4"/>
<text text-anchor="middle" x="119" y="-8.2" font-family="sans-serif" font-size="14.00">dependencies</text>
<g id="clust1" class="cluster">
<title>cluster_NomenklaturaModule</title>
<polygon fill="none" stroke="black" stroke-dasharray="1,5" points="8,-32.8 8,-157.8 230,-157.8 230,-32.8 8,-32.8"/>
</g>
<g id="clust6" class="cluster">
<title>cluster_NomenklaturaModule_providers</title>
<polygon fill="none" stroke="black" points="16,-40.8 16,-92.8 222,-92.8 222,-40.8 16,-40.8"/>
</g>
<!-- NomenklaturaService -->
<g id="node1" class="node">
<title>NomenklaturaService</title>
<ellipse fill="#fdb462" stroke="black" cx="119" cy="-66.8" rx="95.46" ry="18"/>
<text text-anchor="middle" x="119" y="-62.6" font-family="Times,serif" font-size="14.00">NomenklaturaService</text>
</g>
<!-- NomenklaturaModule -->
<g id="node2" class="node">
<title>NomenklaturaModule</title>
<polygon fill="#8dd3c7" stroke="black" points="188.63,-149.8 185.63,-153.8 164.63,-153.8 161.63,-149.8 49.37,-149.8 49.37,-113.8 188.63,-113.8 188.63,-149.8"/>
<text text-anchor="middle" x="119" y="-127.6" font-family="Times,serif" font-size="14.00">NomenklaturaModule</text>
</g>
<!-- NomenklaturaService&#45;&gt;NomenklaturaModule -->
<g id="edge1" class="edge">
<title>NomenklaturaService&#45;&gt;NomenklaturaModule</title>
<path fill="none" stroke="black" d="M119,-84.91C119,-84.91 119,-103.79 119,-103.79"/>
<polygon fill="black" stroke="black" points="115.5,-103.79 119,-113.79 122.5,-103.79 115.5,-103.79"/>
</g>
</g>
</svg>
