<?xml version="1.0" encoding="UTF-8" standalone="no"?>
<!DOCTYPE svg PUBLIC "-//W3C//DTD SVG 1.1//EN"
 "http://www.w3.org/Graphics/SVG/1.1/DTD/svg11.dtd">
<!-- Generated by graphviz version 2.47.3 (20210619.1520)
 -->
<!-- Title: dependencies Pages: 1 -->
<svg width="242pt" height="174pt"
 viewBox="0.00 0.00 242.00 173.80" xmlns="http://www.w3.org/2000/svg" xmlns:xlink="http://www.w3.org/1999/xlink">
<g id="graph0" class="graph" transform="scale(1 1) rotate(0) translate(4 169.8)">
<title>dependencies</title>
<polygon fill="white" stroke="transparent" points="-4,4 -4,-169.8 238,-169.8 238,4 -4,4"/>
<text text-anchor="middle" x="117" y="-8.2" font-family="sans-serif" font-size="14.00">dependencies</text>
<g id="clust1" class="cluster">
<title>cluster_NoteProductsModule</title>
<polygon fill="none" stroke="black" stroke-dasharray="1,5" points="8,-32.8 8,-157.8 226,-157.8 226,-32.8 8,-32.8"/>
</g>
<g id="clust6" class="cluster">
<title>cluster_NoteProductsModule_providers</title>
<polygon fill="none" stroke="black" points="16,-40.8 16,-92.8 218,-92.8 218,-40.8 16,-40.8"/>
</g>
<!-- NoteProductsService -->
<g id="node1" class="node">
<title>NoteProductsService</title>
<ellipse fill="#fdb462" stroke="black" cx="117" cy="-66.8" rx="92.61" ry="18"/>
<text text-anchor="middle" x="117" y="-62.6" font-family="Times,serif" font-size="14.00">NoteProductsService</text>
</g>
<!-- NoteProductsModule -->
<g id="node2" class="node">
<title>NoteProductsModule</title>
<polygon fill="#8dd3c7" stroke="black" points="184.75,-149.8 181.75,-153.8 160.75,-153.8 157.75,-149.8 49.25,-149.8 49.25,-113.8 184.75,-113.8 184.75,-149.8"/>
<text text-anchor="middle" x="117" y="-127.6" font-family="Times,serif" font-size="14.00">NoteProductsModule</text>
</g>
<!-- NoteProductsService&#45;&gt;NoteProductsModule -->
<g id="edge1" class="edge">
<title>NoteProductsService&#45;&gt;NoteProductsModule</title>
<path fill="none" stroke="black" d="M117,-84.91C117,-84.91 117,-103.79 117,-103.79"/>
<polygon fill="black" stroke="black" points="113.5,-103.79 117,-113.79 120.5,-103.79 113.5,-103.79"/>
</g>
</g>
</svg>
