<?xml version="1.0" encoding="UTF-8" standalone="no"?>
<!DOCTYPE svg PUBLIC "-//W3C//DTD SVG 1.1//EN"
 "http://www.w3.org/Graphics/SVG/1.1/DTD/svg11.dtd">
<!-- Generated by graphviz version 2.47.3 (20210619.1520)
 -->
<!-- Title: dependencies Pages: 1 -->
<svg width="2613pt" height="269pt"
 viewBox="0.00 0.00 2613.00 268.80" xmlns="http://www.w3.org/2000/svg" xmlns:xlink="http://www.w3.org/1999/xlink">
<g id="graph0" class="graph" transform="scale(1 1) rotate(0) translate(4 264.8)">
<title>dependencies</title>
<polygon fill="white" stroke="transparent" points="-4,4 -4,-264.8 2609,-264.8 2609,4 -4,4"/>
<text text-anchor="middle" x="1302.5" y="-8.2" font-family="sans-serif" font-size="14.00">dependencies</text>
<g id="clust1" class="cluster">
<title>cluster_ApplicationsModule</title>
<polygon fill="none" stroke="black" stroke-dasharray="1,5" points="8,-32.8 8,-168.8 218,-168.8 218,-32.8 8,-32.8"/>
</g>
<g id="clust6" class="cluster">
<title>cluster_ApplicationsModule_providers</title>
<polygon fill="none" stroke="black" points="16,-40.8 16,-92.8 210,-92.8 210,-40.8 16,-40.8"/>
</g>
<g id="clust7" class="cluster">
<title>cluster_AppModule</title>
<polygon fill="none" stroke="black" stroke-dasharray="1,5" points="447,-108.8 447,-252.8 2229,-252.8 2229,-108.8 447,-108.8"/>
</g>
<g id="clust9" class="cluster">
<title>cluster_AppModule_imports</title>
<polygon fill="none" stroke="black" points="593,-116.8 593,-244.8 2221,-244.8 2221,-116.8 593,-116.8"/>
</g>
<g id="clust12" class="cluster">
<title>cluster_AppModule_providers</title>
<polygon fill="none" stroke="black" points="455,-116.8 455,-168.8 585,-168.8 585,-116.8 455,-116.8"/>
</g>
<g id="clust13" class="cluster">
<title>cluster_CheckoutsModule</title>
<polygon fill="none" stroke="black" stroke-dasharray="1,5" points="245,-108.8 245,-176.8 439,-176.8 439,-108.8 245,-108.8"/>
</g>
<g id="clust18" class="cluster">
<title>cluster_CheckoutsModule_providers</title>
<polygon fill="none" stroke="black" points="253,-116.8 253,-168.8 431,-168.8 431,-116.8 253,-116.8"/>
</g>
<g id="clust19" class="cluster">
<title>cluster_CheckoutsProductsModule</title>
<polygon fill="none" stroke="black" stroke-dasharray="1,5" points="226,-32.8 226,-100.8 488,-100.8 488,-32.8 226,-32.8"/>
</g>
<g id="clust24" class="cluster">
<title>cluster_CheckoutsProductsModule_providers</title>
<polygon fill="none" stroke="black" points="234,-40.8 234,-92.8 480,-92.8 480,-40.8 234,-40.8"/>
</g>
<g id="clust25" class="cluster">
<title>cluster_ContragentsModule</title>
<polygon fill="none" stroke="black" stroke-dasharray="1,5" points="496,-32.8 496,-100.8 702,-100.8 702,-32.8 496,-32.8"/>
</g>
<g id="clust30" class="cluster">
<title>cluster_ContragentsModule_providers</title>
<polygon fill="none" stroke="black" points="504,-40.8 504,-92.8 694,-92.8 694,-40.8 504,-40.8"/>
</g>
<g id="clust31" class="cluster">
<title>cluster_DocumentModule</title>
<polygon fill="none" stroke="black" stroke-dasharray="1,5" points="710,-32.8 710,-100.8 902,-100.8 902,-32.8 710,-32.8"/>
</g>
<g id="clust36" class="cluster">
<title>cluster_DocumentModule_providers</title>
<polygon fill="none" stroke="black" points="718,-40.8 718,-92.8 894,-92.8 894,-40.8 718,-40.8"/>
</g>
<g id="clust37" class="cluster">
<title>cluster_NomenklaturaModule</title>
<polygon fill="none" stroke="black" stroke-dasharray="1,5" points="910,-32.8 910,-100.8 1132,-100.8 1132,-32.8 910,-32.8"/>
</g>
<g id="clust42" class="cluster">
<title>cluster_NomenklaturaModule_providers</title>
<polygon fill="none" stroke="black" points="918,-40.8 918,-92.8 1124,-92.8 1124,-40.8 918,-40.8"/>
</g>
<g id="clust43" class="cluster">
<title>cluster_NoteProductsModule</title>
<polygon fill="none" stroke="black" stroke-dasharray="1,5" points="1140,-32.8 1140,-100.8 1358,-100.8 1358,-32.8 1140,-32.8"/>
</g>
<g id="clust48" class="cluster">
<title>cluster_NoteProductsModule_providers</title>
<polygon fill="none" stroke="black" points="1148,-40.8 1148,-92.8 1350,-92.8 1350,-40.8 1148,-40.8"/>
</g>
<g id="clust49" class="cluster">
<title>cluster_NotesModule</title>
<polygon fill="none" stroke="black" stroke-dasharray="1,5" points="1366,-32.8 1366,-100.8 1524,-100.8 1524,-32.8 1366,-32.8"/>
</g>
<g id="clust54" class="cluster">
<title>cluster_NotesModule_providers</title>
<polygon fill="none" stroke="black" points="1374,-40.8 1374,-92.8 1516,-92.8 1516,-40.8 1374,-40.8"/>
</g>
<g id="clust55" class="cluster">
<title>cluster_ObjectsModule</title>
<polygon fill="none" stroke="black" stroke-dasharray="1,5" points="1532,-32.8 1532,-100.8 1702,-100.8 1702,-32.8 1532,-32.8"/>
</g>
<g id="clust60" class="cluster">
<title>cluster_ObjectsModule_providers</title>
<polygon fill="none" stroke="black" points="1540,-40.8 1540,-92.8 1694,-92.8 1694,-40.8 1540,-40.8"/>
</g>
<g id="clust61" class="cluster">
<title>cluster_OrdersModule</title>
<polygon fill="none" stroke="black" stroke-dasharray="1,5" points="1710,-32.8 1710,-100.8 1874,-100.8 1874,-32.8 1710,-32.8"/>
</g>
<g id="clust66" class="cluster">
<title>cluster_OrdersModule_providers</title>
<polygon fill="none" stroke="black" points="1718,-40.8 1718,-92.8 1866,-92.8 1866,-40.8 1718,-40.8"/>
</g>
<g id="clust67" class="cluster">
<title>cluster_PeopleModule</title>
<polygon fill="none" stroke="black" stroke-dasharray="1,5" points="1882,-32.8 1882,-100.8 2046,-100.8 2046,-32.8 1882,-32.8"/>
</g>
<g id="clust72" class="cluster">
<title>cluster_PeopleModule_providers</title>
<polygon fill="none" stroke="black" points="1890,-40.8 1890,-92.8 2038,-92.8 2038,-40.8 1890,-40.8"/>
</g>
<g id="clust73" class="cluster">
<title>cluster_RealisationsModule</title>
<polygon fill="none" stroke="black" stroke-dasharray="1,5" points="2237,-184.8 2237,-252.8 2597,-252.8 2597,-184.8 2237,-184.8"/>
</g>
<g id="clust76" class="cluster">
<title>cluster_RealisationsModule_exports</title>
<polygon fill="none" stroke="black" points="2443,-192.8 2443,-244.8 2589,-244.8 2589,-192.8 2443,-192.8"/>
</g>
<g id="clust78" class="cluster">
<title>cluster_RealisationsModule_providers</title>
<polygon fill="none" stroke="black" points="2245,-192.8 2245,-244.8 2435,-244.8 2435,-192.8 2245,-192.8"/>
</g>
<g id="clust79" class="cluster">
<title>cluster_ReportsModule</title>
<polygon fill="none" stroke="black" stroke-dasharray="1,5" points="2054,-32.8 2054,-100.8 2226,-100.8 2226,-32.8 2054,-32.8"/>
</g>
<g id="clust84" class="cluster">
<title>cluster_ReportsModule_providers</title>
<polygon fill="none" stroke="black" points="2062,-40.8 2062,-92.8 2218,-92.8 2218,-40.8 2062,-40.8"/>
</g>
<g id="clust85" class="cluster">
<title>cluster_TendersModule</title>
<polygon fill="none" stroke="black" stroke-dasharray="1,5" points="2234,-32.8 2234,-100.8 2408,-100.8 2408,-32.8 2234,-32.8"/>
</g>
<g id="clust90" class="cluster">
<title>cluster_TendersModule_providers</title>
<polygon fill="none" stroke="black" points="2242,-40.8 2242,-92.8 2400,-92.8 2400,-40.8 2242,-40.8"/>
</g>
<!-- ApplicationsService -->
<g id="node1" class="node">
<title>ApplicationsService</title>
<ellipse fill="#fdb462" stroke="black" cx="113" cy="-66.8" rx="89.18" ry="18"/>
<text text-anchor="middle" x="113" y="-62.6" font-family="Times,serif" font-size="14.00">ApplicationsService</text>
</g>
<!-- ApplicationsModule -->
<g id="node2" class="node">
<title>ApplicationsModule</title>
<polygon fill="#8dd3c7" stroke="black" points="193.59,-160.8 190.59,-164.8 169.59,-164.8 166.59,-160.8 62.41,-160.8 62.41,-124.8 193.59,-124.8 193.59,-160.8"/>
<text text-anchor="middle" x="128" y="-138.6" font-family="Times,serif" font-size="14.00">ApplicationsModule</text>
</g>
<!-- ApplicationsService&#45;&gt;ApplicationsModule -->
<g id="edge1" class="edge">
<title>ApplicationsService&#45;&gt;ApplicationsModule</title>
<path fill="none" stroke="black" d="M128,-84.81C128,-84.81 128,-114.65 128,-114.65"/>
<polygon fill="black" stroke="black" points="124.5,-114.65 128,-124.65 131.5,-114.65 124.5,-114.65"/>
</g>
<!-- AppModule -->
<g id="node16" class="node">
<title>AppModule</title>
<polygon fill="#8dd3c7" stroke="black" points="584.66,-236.8 581.66,-240.8 560.66,-240.8 557.66,-236.8 501.34,-236.8 501.34,-200.8 584.66,-200.8 584.66,-236.8"/>
<text text-anchor="middle" x="543" y="-214.6" font-family="Times,serif" font-size="14.00">AppModule</text>
</g>
<!-- ApplicationsModule&#45;&gt;AppModule -->
<g id="edge2" class="edge">
<title>ApplicationsModule&#45;&gt;AppModule</title>
<path fill="none" stroke="black" d="M128,-160.81C128,-183.29 128,-218.8 128,-218.8 128,-218.8 491.31,-218.8 491.31,-218.8"/>
<polygon fill="black" stroke="black" points="491.31,-222.3 501.31,-218.8 491.31,-215.3 491.31,-222.3"/>
</g>
<!-- CheckoutsModule -->
<g id="node3" class="node">
<title>CheckoutsModule</title>
<polygon fill="#8dd3c7" stroke="black" points="721.15,-236.8 718.15,-240.8 697.15,-240.8 694.15,-236.8 602.85,-236.8 602.85,-200.8 721.15,-200.8 721.15,-236.8"/>
<text text-anchor="middle" x="662" y="-214.6" font-family="Times,serif" font-size="14.00">CheckoutsModule</text>
</g>
<!-- CheckoutsModule&#45;&gt;AppModule -->
<g id="edge3" class="edge">
<title>CheckoutsModule&#45;&gt;AppModule</title>
<path fill="none" stroke="black" d="M602.85,-218.8C602.85,-218.8 594.89,-218.8 594.89,-218.8"/>
<polygon fill="black" stroke="black" points="594.89,-215.3 584.89,-218.8 594.89,-222.3 594.89,-215.3"/>
</g>
<!-- CheckoutsProductsModule -->
<g id="node4" class="node">
<title>CheckoutsProductsModule</title>
<polygon fill="#8dd3c7" stroke="black" points="768.64,-160.8 765.64,-164.8 744.64,-164.8 741.64,-160.8 601.36,-160.8 601.36,-124.8 768.64,-124.8 768.64,-160.8"/>
<text text-anchor="middle" x="685" y="-138.6" font-family="Times,serif" font-size="14.00">CheckoutsProductsModule</text>
</g>
<!-- CheckoutsProductsModule&#45;&gt;AppModule -->
<g id="edge4" class="edge">
<title>CheckoutsProductsModule&#45;&gt;AppModule</title>
<path fill="none" stroke="black" d="M601,-142.8C589.5,-142.8 581.54,-142.8 581.54,-142.8 581.54,-142.8 581.54,-190.79 581.54,-190.79"/>
<polygon fill="black" stroke="black" points="578.05,-190.79 581.54,-200.79 585.05,-190.79 578.05,-190.79"/>
</g>
<!-- ContragentsModule -->
<g id="node5" class="node">
<title>ContragentsModule</title>
<polygon fill="#8dd3c7" stroke="black" points="913.7,-160.8 910.7,-164.8 889.7,-164.8 886.7,-160.8 786.3,-160.8 786.3,-124.8 913.7,-124.8 913.7,-160.8"/>
<text text-anchor="middle" x="850" y="-138.6" font-family="Times,serif" font-size="14.00">ContragentsModule</text>
</g>
<!-- ContragentsModule&#45;&gt;AppModule -->
<g id="edge5" class="edge">
<title>ContragentsModule&#45;&gt;AppModule</title>
<path fill="none" stroke="black" d="M850,-160.81C850,-176.85 850,-197.8 850,-197.8 850,-197.8 583.19,-197.8 583.19,-197.8 583.19,-197.8 583.19,-198.09 583.19,-198.09"/>
<polygon fill="black" stroke="black" points="579.69,-190.72 583.19,-200.72 586.69,-190.72 579.69,-190.72"/>
</g>
<!-- DocumentModule -->
<g id="node6" class="node">
<title>DocumentModule</title>
<polygon fill="#8dd3c7" stroke="black" points="1049.87,-160.8 1046.87,-164.8 1025.87,-164.8 1022.87,-160.8 932.13,-160.8 932.13,-124.8 1049.87,-124.8 1049.87,-160.8"/>
<text text-anchor="middle" x="991" y="-138.6" font-family="Times,serif" font-size="14.00">DocumentModule</text>
</g>
<!-- DocumentModule&#45;&gt;AppModule -->
<g id="edge6" class="edge">
<title>DocumentModule&#45;&gt;AppModule</title>
<path fill="none" stroke="black" d="M991,-160.97C991,-163.25 991,-164.8 991,-164.8 991,-164.8 516.26,-164.8 516.26,-164.8 516.26,-164.8 516.26,-190.52 516.26,-190.52"/>
<polygon fill="black" stroke="black" points="512.76,-190.52 516.26,-200.52 519.76,-190.52 512.76,-190.52"/>
</g>
<!-- NomenklaturaModule -->
<g id="node7" class="node">
<title>NomenklaturaModule</title>
<polygon fill="#8dd3c7" stroke="black" points="1207.63,-160.8 1204.63,-164.8 1183.63,-164.8 1180.63,-160.8 1068.37,-160.8 1068.37,-124.8 1207.63,-124.8 1207.63,-160.8"/>
<text text-anchor="middle" x="1138" y="-138.6" font-family="Times,serif" font-size="14.00">NomenklaturaModule</text>
</g>
<!-- NomenklaturaModule&#45;&gt;AppModule -->
<g id="edge7" class="edge">
<title>NomenklaturaModule&#45;&gt;AppModule</title>
<path fill="none" stroke="black" d="M1084.2,-124.65C1084.2,-111.06 1084.2,-94.8 1084.2,-94.8 1084.2,-94.8 579.9,-94.8 579.9,-94.8 579.9,-94.8 579.9,-190.77 579.9,-190.77"/>
<polygon fill="black" stroke="black" points="576.4,-190.77 579.9,-200.77 583.4,-190.77 576.4,-190.77"/>
</g>
<!-- NoteProductsModule -->
<g id="node8" class="node">
<title>NoteProductsModule</title>
<polygon fill="#8dd3c7" stroke="black" points="1361.75,-160.8 1358.75,-164.8 1337.75,-164.8 1334.75,-160.8 1226.25,-160.8 1226.25,-124.8 1361.75,-124.8 1361.75,-160.8"/>
<text text-anchor="middle" x="1294" y="-138.6" font-family="Times,serif" font-size="14.00">NoteProductsModule</text>
</g>
<!-- NoteProductsModule&#45;&gt;AppModule -->
<g id="edge8" class="edge">
<title>NoteProductsModule&#45;&gt;AppModule</title>
<path fill="none" stroke="black" d="M1294,-160.86C1294,-165.29 1294,-168.8 1294,-168.8 1294,-168.8 523.81,-168.8 523.81,-168.8 523.81,-168.8 523.81,-190.75 523.81,-190.75"/>
<polygon fill="black" stroke="black" points="520.31,-190.75 523.81,-200.75 527.31,-190.75 520.31,-190.75"/>
</g>
<!-- NotesModule -->
<g id="node9" class="node">
<title>NotesModule</title>
<polygon fill="#8dd3c7" stroke="black" points="1472.21,-160.8 1469.21,-164.8 1448.21,-164.8 1445.21,-160.8 1379.79,-160.8 1379.79,-124.8 1472.21,-124.8 1472.21,-160.8"/>
<text text-anchor="middle" x="1426" y="-138.6" font-family="Times,serif" font-size="14.00">NotesModule</text>
</g>
<!-- NotesModule&#45;&gt;AppModule -->
<g id="edge9" class="edge">
<title>NotesModule&#45;&gt;AppModule</title>
<path fill="none" stroke="black" d="M1426,-161C1426,-166.83 1426,-171.8 1426,-171.8 1426,-171.8 531.35,-171.8 531.35,-171.8 531.35,-171.8 531.35,-190.76 531.35,-190.76"/>
<polygon fill="black" stroke="black" points="527.85,-190.76 531.35,-200.76 534.85,-190.76 527.85,-190.76"/>
</g>
<!-- ObjectsModule -->
<g id="node10" class="node">
<title>ObjectsModule</title>
<polygon fill="#8dd3c7" stroke="black" points="1592.31,-160.8 1589.31,-164.8 1568.31,-164.8 1565.31,-160.8 1489.69,-160.8 1489.69,-124.8 1592.31,-124.8 1592.31,-160.8"/>
<text text-anchor="middle" x="1541" y="-138.6" font-family="Times,serif" font-size="14.00">ObjectsModule</text>
</g>
<!-- ObjectsModule&#45;&gt;AppModule -->
<g id="edge10" class="edge">
<title>ObjectsModule&#45;&gt;AppModule</title>
<path fill="none" stroke="black" d="M1498.68,-124.56C1498.68,-109.23 1498.68,-89.8 1498.68,-89.8 1498.68,-89.8 578.26,-89.8 578.26,-89.8 578.26,-89.8 578.26,-190.59 578.26,-190.59"/>
<polygon fill="black" stroke="black" points="574.76,-190.59 578.26,-200.59 581.76,-190.59 574.76,-190.59"/>
</g>
<!-- OrdersModule -->
<g id="node11" class="node">
<title>OrdersModule</title>
<polygon fill="#8dd3c7" stroke="black" points="1707.64,-160.8 1704.64,-164.8 1683.64,-164.8 1680.64,-160.8 1610.36,-160.8 1610.36,-124.8 1707.64,-124.8 1707.64,-160.8"/>
<text text-anchor="middle" x="1659" y="-138.6" font-family="Times,serif" font-size="14.00">OrdersModule</text>
</g>
<!-- OrdersModule&#45;&gt;AppModule -->
<g id="edge11" class="edge">
<title>OrdersModule&#45;&gt;AppModule</title>
<path fill="none" stroke="black" d="M1659,-160.84C1659,-168.55 1659,-175.8 1659,-175.8 1659,-175.8 538.9,-175.8 538.9,-175.8 538.9,-175.8 538.9,-190.31 538.9,-190.31"/>
<polygon fill="black" stroke="black" points="535.4,-190.31 538.9,-200.31 542.4,-190.31 535.4,-190.31"/>
</g>
<!-- PeopleModule -->
<g id="node12" class="node">
<title>PeopleModule</title>
<polygon fill="#8dd3c7" stroke="black" points="1823.65,-160.8 1820.65,-164.8 1799.65,-164.8 1796.65,-160.8 1726.35,-160.8 1726.35,-124.8 1823.65,-124.8 1823.65,-160.8"/>
<text text-anchor="middle" x="1775" y="-138.6" font-family="Times,serif" font-size="14.00">PeopleModule</text>
</g>
<!-- PeopleModule&#45;&gt;AppModule -->
<g id="edge12" class="edge">
<title>PeopleModule&#45;&gt;AppModule</title>
<path fill="none" stroke="black" d="M1775,-160.87C1775,-170.26 1775,-179.8 1775,-179.8 1775,-179.8 546.44,-179.8 546.44,-179.8 546.44,-179.8 546.44,-190.67 546.44,-190.67"/>
<polygon fill="black" stroke="black" points="542.94,-190.67 546.44,-200.67 549.94,-190.67 542.94,-190.67"/>
</g>
<!-- RealisationsModule -->
<g id="node13" class="node">
<title>RealisationsModule</title>
<polygon fill="#8dd3c7" stroke="black" points="2212.98,-160.8 2209.98,-164.8 2188.98,-164.8 2185.98,-160.8 2085.02,-160.8 2085.02,-124.8 2212.98,-124.8 2212.98,-160.8"/>
<text text-anchor="middle" x="2149" y="-138.6" font-family="Times,serif" font-size="14.00">RealisationsModule</text>
</g>
<!-- RealisationsModule&#45;&gt;CheckoutsModule -->
<g id="edge17" class="edge">
<title>RealisationsModule&#45;&gt;CheckoutsModule</title>
<path fill="none" stroke="black" d="M2149,-160.83C2149,-181.57 2149,-212.8 2149,-212.8 2149,-212.8 731.21,-212.8 731.21,-212.8"/>
<polygon fill="black" stroke="black" points="731.21,-209.3 721.21,-212.8 731.21,-216.3 731.21,-209.3"/>
</g>
<!-- RealisationsModule&#45;&gt;AppModule -->
<g id="edge13" class="edge">
<title>RealisationsModule&#45;&gt;AppModule</title>
<path fill="none" stroke="black" d="M2117,-160.95C2117,-174.54 2117,-190.8 2117,-190.8 2117,-190.8 569.08,-190.8 569.08,-190.8 569.08,-190.8 569.08,-191.78 569.08,-191.78"/>
<polygon fill="black" stroke="black" points="565.58,-190.59 569.08,-200.59 572.58,-190.59 565.58,-190.59"/>
</g>
<!-- RealisationsService  -->
<g id="node28" class="node">
<title>RealisationsService </title>
<polygon fill="#fb8072" stroke="black" points="2580.91,-236.8 2451.09,-236.8 2451.09,-200.8 2580.91,-200.8 2580.91,-236.8"/>
<text text-anchor="middle" x="2516" y="-214.6" font-family="Times,serif" font-size="14.00">RealisationsService </text>
</g>
<!-- RealisationsModule&#45;&gt;RealisationsService  -->
<g id="edge28" class="edge">
<title>RealisationsModule&#45;&gt;RealisationsService </title>
<path fill="none" stroke="black" stroke-dasharray="5,2" d="M2213.35,-142.8C2318.6,-142.8 2516,-142.8 2516,-142.8 2516,-142.8 2516,-190.79 2516,-190.79"/>
<polygon fill="black" stroke="black" points="2512.5,-190.79 2516,-200.79 2519.5,-190.79 2512.5,-190.79"/>
</g>
<!-- ReportsModule -->
<g id="node14" class="node">
<title>ReportsModule</title>
<polygon fill="#8dd3c7" stroke="black" points="1944.6,-160.8 1941.6,-164.8 1920.6,-164.8 1917.6,-160.8 1841.4,-160.8 1841.4,-124.8 1944.6,-124.8 1944.6,-160.8"/>
<text text-anchor="middle" x="1893" y="-138.6" font-family="Times,serif" font-size="14.00">ReportsModule</text>
</g>
<!-- ReportsModule&#45;&gt;AppModule -->
<g id="edge14" class="edge">
<title>ReportsModule&#45;&gt;AppModule</title>
<path fill="none" stroke="black" d="M1893,-160.93C1893,-171.51 1893,-182.8 1893,-182.8 1893,-182.8 553.99,-182.8 553.99,-182.8 553.99,-182.8 553.99,-190.38 553.99,-190.38"/>
<polygon fill="black" stroke="black" points="550.49,-190.38 553.99,-200.38 557.49,-190.38 550.49,-190.38"/>
</g>
<!-- TendersModule -->
<g id="node15" class="node">
<title>TendersModule</title>
<polygon fill="#8dd3c7" stroke="black" points="2067.14,-160.8 2064.14,-164.8 2043.14,-164.8 2040.14,-160.8 1962.86,-160.8 1962.86,-124.8 2067.14,-124.8 2067.14,-160.8"/>
<text text-anchor="middle" x="2015" y="-138.6" font-family="Times,serif" font-size="14.00">TendersModule</text>
</g>
<!-- TendersModule&#45;&gt;AppModule -->
<g id="edge15" class="edge">
<title>TendersModule&#45;&gt;AppModule</title>
<path fill="none" stroke="black" d="M2015,-160.95C2015,-173.07 2015,-186.8 2015,-186.8 2015,-186.8 561.53,-186.8 561.53,-186.8 561.53,-186.8 561.53,-190.56 561.53,-190.56"/>
<polygon fill="black" stroke="black" points="558.03,-190.56 561.53,-200.56 565.03,-190.56 558.03,-190.56"/>
</g>
<!-- AppService -->
<g id="node17" class="node">
<title>AppService</title>
<ellipse fill="#fdb462" stroke="black" cx="520" cy="-142.8" rx="56.74" ry="18"/>
<text text-anchor="middle" x="520" y="-138.6" font-family="Times,serif" font-size="14.00">AppService</text>
</g>
<!-- AppService&#45;&gt;AppModule -->
<g id="edge16" class="edge">
<title>AppService&#45;&gt;AppModule</title>
<path fill="none" stroke="black" d="M508.72,-160.81C508.72,-160.81 508.72,-190.65 508.72,-190.65"/>
<polygon fill="black" stroke="black" points="505.22,-190.65 508.72,-200.65 512.22,-190.65 505.22,-190.65"/>
</g>
<!-- CheckoutsService -->
<g id="node18" class="node">
<title>CheckoutsService</title>
<ellipse fill="#fdb462" stroke="black" cx="342" cy="-142.8" rx="80.52" ry="18"/>
<text text-anchor="middle" x="342" y="-138.6" font-family="Times,serif" font-size="14.00">CheckoutsService</text>
</g>
<!-- CheckoutsService&#45;&gt;CheckoutsModule -->
<g id="edge18" class="edge">
<title>CheckoutsService&#45;&gt;CheckoutsModule</title>
<path fill="none" stroke="black" d="M342,-160.92C342,-175.58 342,-193.8 342,-193.8 342,-193.8 662,-193.8 662,-193.8 662,-193.8 662,-194.48 662,-194.48"/>
<polygon fill="black" stroke="black" points="658.5,-190.63 662,-200.63 665.5,-190.63 658.5,-190.63"/>
</g>
<!-- CheckoutsProductsService -->
<g id="node19" class="node">
<title>CheckoutsProductsService</title>
<ellipse fill="#fdb462" stroke="black" cx="357" cy="-66.8" rx="114.61" ry="18"/>
<text text-anchor="middle" x="357" y="-62.6" font-family="Times,serif" font-size="14.00">CheckoutsProductsService</text>
</g>
<!-- CheckoutsProductsService&#45;&gt;CheckoutsProductsModule -->
<g id="edge19" class="edge">
<title>CheckoutsProductsService&#45;&gt;CheckoutsProductsModule</title>
<path fill="none" stroke="black" d="M467.47,-71.77C467.47,-82.07 467.47,-104.8 467.47,-104.8 467.47,-104.8 629.34,-104.8 629.34,-104.8 629.34,-104.8 629.34,-114.69 629.34,-114.69"/>
<polygon fill="black" stroke="black" points="625.84,-114.69 629.34,-124.69 632.84,-114.69 625.84,-114.69"/>
</g>
<!-- ContragentsService -->
<g id="node20" class="node">
<title>ContragentsService</title>
<ellipse fill="#fdb462" stroke="black" cx="599" cy="-66.8" rx="86.81" ry="18"/>
<text text-anchor="middle" x="599" y="-62.6" font-family="Times,serif" font-size="14.00">ContragentsService</text>
</g>
<!-- ContragentsService&#45;&gt;ContragentsModule -->
<g id="edge20" class="edge">
<title>ContragentsService&#45;&gt;ContragentsModule</title>
<path fill="none" stroke="black" d="M657.5,-80.22C657.5,-89.36 657.5,-99.8 657.5,-99.8 657.5,-99.8 836.31,-99.8 836.31,-99.8 836.31,-99.8 836.31,-114.31 836.31,-114.31"/>
<polygon fill="black" stroke="black" points="832.81,-114.31 836.31,-124.31 839.81,-114.31 832.81,-114.31"/>
</g>
<!-- DocumentService -->
<g id="node21" class="node">
<title>DocumentService</title>
<ellipse fill="#fdb462" stroke="black" cx="806" cy="-66.8" rx="80.44" ry="18"/>
<text text-anchor="middle" x="806" y="-62.6" font-family="Times,serif" font-size="14.00">DocumentService</text>
</g>
<!-- DocumentService&#45;&gt;DocumentModule -->
<g id="edge21" class="edge">
<title>DocumentService&#45;&gt;DocumentModule</title>
<path fill="none" stroke="black" d="M886.5,-66.8C905.16,-66.8 919.68,-66.8 919.68,-66.8 919.68,-66.8 919.68,-142.8 919.68,-142.8 919.68,-142.8 922.11,-142.8 922.11,-142.8"/>
<polygon fill="black" stroke="black" points="922.11,-146.3 932.11,-142.8 922.11,-139.3 922.11,-146.3"/>
</g>
<!-- NomenklaturaService -->
<g id="node22" class="node">
<title>NomenklaturaService</title>
<ellipse fill="#fdb462" stroke="black" cx="1021" cy="-66.8" rx="95.46" ry="18"/>
<text text-anchor="middle" x="1021" y="-62.6" font-family="Times,serif" font-size="14.00">NomenklaturaService</text>
</g>
<!-- NomenklaturaService&#45;&gt;NomenklaturaModule -->
<g id="edge22" class="edge">
<title>NomenklaturaService&#45;&gt;NomenklaturaModule</title>
<path fill="none" stroke="black" d="M1100.22,-77.05C1100.22,-77.05 1100.22,-114.57 1100.22,-114.57"/>
<polygon fill="black" stroke="black" points="1096.72,-114.57 1100.22,-124.57 1103.72,-114.57 1096.72,-114.57"/>
</g>
<!-- NoteProductsService -->
<g id="node23" class="node">
<title>NoteProductsService</title>
<ellipse fill="#fdb462" stroke="black" cx="1249" cy="-66.8" rx="92.61" ry="18"/>
<text text-anchor="middle" x="1249" y="-62.6" font-family="Times,serif" font-size="14.00">NoteProductsService</text>
</g>
<!-- NoteProductsService&#45;&gt;NoteProductsModule -->
<g id="edge23" class="edge">
<title>NoteProductsService&#45;&gt;NoteProductsModule</title>
<path fill="none" stroke="black" d="M1283.84,-83.67C1283.84,-83.67 1283.84,-114.65 1283.84,-114.65"/>
<polygon fill="black" stroke="black" points="1280.34,-114.65 1283.84,-124.65 1287.34,-114.65 1280.34,-114.65"/>
</g>
<!-- NotesService -->
<g id="node24" class="node">
<title>NotesService</title>
<ellipse fill="#fdb462" stroke="black" cx="1445" cy="-66.8" rx="62.54" ry="18"/>
<text text-anchor="middle" x="1445" y="-62.6" font-family="Times,serif" font-size="14.00">NotesService</text>
</g>
<!-- NotesService&#45;&gt;NotesModule -->
<g id="edge24" class="edge">
<title>NotesService&#45;&gt;NotesModule</title>
<path fill="none" stroke="black" d="M1427.29,-84.43C1427.29,-84.43 1427.29,-114.74 1427.29,-114.74"/>
<polygon fill="black" stroke="black" points="1423.79,-114.74 1427.29,-124.74 1430.79,-114.74 1423.79,-114.74"/>
</g>
<!-- ObjectsService -->
<g id="node25" class="node">
<title>ObjectsService</title>
<ellipse fill="#fdb462" stroke="black" cx="1617" cy="-66.8" rx="69.48" ry="18"/>
<text text-anchor="middle" x="1617" y="-62.6" font-family="Times,serif" font-size="14.00">ObjectsService</text>
</g>
<!-- ObjectsService&#45;&gt;ObjectsModule -->
<g id="edge25" class="edge">
<title>ObjectsService&#45;&gt;ObjectsModule</title>
<path fill="none" stroke="black" d="M1569.83,-80.04C1569.83,-80.04 1569.83,-114.59 1569.83,-114.59"/>
<polygon fill="black" stroke="black" points="1566.33,-114.59 1569.83,-124.59 1573.33,-114.59 1566.33,-114.59"/>
</g>
<!-- OrdersService -->
<g id="node26" class="node">
<title>OrdersService</title>
<ellipse fill="#fdb462" stroke="black" cx="1792" cy="-66.8" rx="66.03" ry="18"/>
<text text-anchor="middle" x="1792" y="-62.6" font-family="Times,serif" font-size="14.00">OrdersService</text>
</g>
<!-- OrdersService&#45;&gt;OrdersModule -->
<g id="edge26" class="edge">
<title>OrdersService&#45;&gt;OrdersModule</title>
<path fill="none" stroke="black" d="M1725.61,-66.8C1709.67,-66.8 1697.15,-66.8 1697.15,-66.8 1697.15,-66.8 1697.15,-114.79 1697.15,-114.79"/>
<polygon fill="black" stroke="black" points="1693.65,-114.79 1697.15,-124.79 1700.65,-114.79 1693.65,-114.79"/>
</g>
<!-- PeopleService -->
<g id="node27" class="node">
<title>PeopleService</title>
<ellipse fill="#fdb462" stroke="black" cx="1964" cy="-66.8" rx="66.05" ry="18"/>
<text text-anchor="middle" x="1964" y="-62.6" font-family="Times,serif" font-size="14.00">PeopleService</text>
</g>
<!-- PeopleService&#45;&gt;PeopleModule -->
<g id="edge27" class="edge">
<title>PeopleService&#45;&gt;PeopleModule</title>
<path fill="none" stroke="black" d="M1913.33,-78.55C1913.33,-91.28 1913.33,-109.8 1913.33,-109.8 1913.33,-109.8 1775,-109.8 1775,-109.8 1775,-109.8 1775,-114.76 1775,-114.76"/>
<polygon fill="black" stroke="black" points="1771.5,-114.76 1775,-124.76 1778.5,-114.76 1771.5,-114.76"/>
</g>
<!-- RealisationsService -->
<g id="node29" class="node">
<title>RealisationsService</title>
<ellipse fill="#fdb462" stroke="black" cx="2340" cy="-218.8" rx="87.39" ry="18"/>
<text text-anchor="middle" x="2340" y="-214.6" font-family="Times,serif" font-size="14.00">RealisationsService</text>
</g>
<!-- RealisationsService&#45;&gt;RealisationsModule -->
<g id="edge29" class="edge">
<title>RealisationsService&#45;&gt;RealisationsModule</title>
<path fill="none" stroke="black" d="M2257.7,-224.8C2218.91,-224.8 2181,-224.8 2181,-224.8 2181,-224.8 2181,-171 2181,-171"/>
<polygon fill="black" stroke="black" points="2184.5,-171 2181,-161 2177.5,-171 2184.5,-171"/>
</g>
<!-- ReportsService -->
<g id="node30" class="node">
<title>ReportsService</title>
<ellipse fill="#fdb462" stroke="black" cx="2140" cy="-66.8" rx="70.06" ry="18"/>
<text text-anchor="middle" x="2140" y="-62.6" font-family="Times,serif" font-size="14.00">ReportsService</text>
</g>
<!-- ReportsService&#45;&gt;ReportsModule -->
<g id="edge30" class="edge">
<title>ReportsService&#45;&gt;ReportsModule</title>
<path fill="none" stroke="black" d="M2077.49,-75.16C2077.49,-88.91 2077.49,-114.8 2077.49,-114.8 2077.49,-114.8 1928.94,-114.8 1928.94,-114.8 1928.94,-114.8 1928.94,-115.78 1928.94,-115.78"/>
<polygon fill="black" stroke="black" points="1925.44,-114.59 1928.94,-124.59 1932.44,-114.59 1925.44,-114.59"/>
</g>
<!-- TendersService -->
<g id="node31" class="node">
<title>TendersService</title>
<ellipse fill="#fdb462" stroke="black" cx="2321" cy="-66.8" rx="71.18" ry="18"/>
<text text-anchor="middle" x="2321" y="-62.6" font-family="Times,serif" font-size="14.00">TendersService</text>
</g>
<!-- TendersService&#45;&gt;TendersModule -->
<g id="edge31" class="edge">
<title>TendersService&#45;&gt;TendersModule</title>
<path fill="none" stroke="black" d="M2322.45,-85.04C2322.45,-100.37 2322.45,-119.8 2322.45,-119.8 2322.45,-119.8 2048.8,-119.8 2048.8,-119.8 2048.8,-119.8 2048.8,-120.29 2048.8,-120.29"/>
<polygon fill="black" stroke="black" points="2045.3,-114.68 2048.8,-124.68 2052.3,-114.68 2045.3,-114.68"/>
</g>
</g>
</svg>
