<?xml version="1.0" encoding="UTF-8" standalone="no"?>
<!DOCTYPE svg PUBLIC "-//W3C//DTD SVG 1.1//EN"
 "http://www.w3.org/Graphics/SVG/1.1/DTD/svg11.dtd">
<!-- Generated by graphviz version 2.47.3 (20210619.1520)
 -->
<!-- Title: dependencies Pages: 1 -->
<svg width="2093pt" height="174pt"
 viewBox="0.00 0.00 2093.00 173.80" xmlns="http://www.w3.org/2000/svg" xmlns:xlink="http://www.w3.org/1999/xlink">
<g id="graph0" class="graph" transform="scale(1 1) rotate(0) translate(4 169.8)">
<title>dependencies</title>
<polygon fill="white" stroke="transparent" points="-4,4 -4,-169.8 2089,-169.8 2089,4 -4,4"/>
<text text-anchor="middle" x="1042.5" y="-8.2" font-family="sans-serif" font-size="14.00">dependencies</text>
<g id="clust1" class="cluster">
<title>cluster_AppModule</title>
<polygon fill="none" stroke="black" stroke-dasharray="1,5" points="8,-32.8 8,-157.8 2077,-157.8 2077,-32.8 8,-32.8"/>
</g>
<g id="clust3" class="cluster">
<title>cluster_AppModule_imports</title>
<polygon fill="none" stroke="black" points="154,-40.8 154,-92.8 2069,-92.8 2069,-40.8 154,-40.8"/>
</g>
<g id="clust6" class="cluster">
<title>cluster_AppModule_providers</title>
<polygon fill="none" stroke="black" points="16,-40.8 16,-92.8 146,-92.8 146,-40.8 16,-40.8"/>
</g>
<!-- ApplicationsModule -->
<g id="node1" class="node">
<title>ApplicationsModule</title>
<polygon fill="#8dd3c7" stroke="black" points="2060.59,-84.8 2057.59,-88.8 2036.59,-88.8 2033.59,-84.8 1929.41,-84.8 1929.41,-48.8 2060.59,-48.8 2060.59,-84.8"/>
<text text-anchor="middle" x="1995" y="-62.6" font-family="Times,serif" font-size="14.00">ApplicationsModule</text>
</g>
<!-- AppModule -->
<g id="node15" class="node">
<title>AppModule</title>
<polygon fill="#8dd3c7" stroke="black" points="991.66,-149.8 988.66,-153.8 967.66,-153.8 964.66,-149.8 908.34,-149.8 908.34,-113.8 991.66,-113.8 991.66,-149.8"/>
<text text-anchor="middle" x="950" y="-127.6" font-family="Times,serif" font-size="14.00">AppModule</text>
</g>
<!-- ApplicationsModule&#45;&gt;AppModule -->
<g id="edge1" class="edge">
<title>ApplicationsModule&#45;&gt;AppModule</title>
<path fill="none" stroke="black" d="M1995,-85.12C1995,-108.46 1995,-145.8 1995,-145.8 1995,-145.8 1001.93,-145.8 1001.93,-145.8"/>
<polygon fill="black" stroke="black" points="1001.93,-142.3 991.93,-145.8 1001.93,-149.3 1001.93,-142.3"/>
</g>
<!-- CheckoutsModule -->
<g id="node2" class="node">
<title>CheckoutsModule</title>
<polygon fill="#8dd3c7" stroke="black" points="1911.15,-84.8 1908.15,-88.8 1887.15,-88.8 1884.15,-84.8 1792.85,-84.8 1792.85,-48.8 1911.15,-48.8 1911.15,-84.8"/>
<text text-anchor="middle" x="1852" y="-62.6" font-family="Times,serif" font-size="14.00">CheckoutsModule</text>
</g>
<!-- CheckoutsModule&#45;&gt;AppModule -->
<g id="edge2" class="edge">
<title>CheckoutsModule&#45;&gt;AppModule</title>
<path fill="none" stroke="black" d="M1852,-85.09C1852,-107.01 1852,-140.8 1852,-140.8 1852,-140.8 1001.7,-140.8 1001.7,-140.8"/>
<polygon fill="black" stroke="black" points="1001.7,-137.3 991.7,-140.8 1001.7,-144.3 1001.7,-137.3"/>
</g>
<!-- CheckoutsProductsModule -->
<g id="node3" class="node">
<title>CheckoutsProductsModule</title>
<polygon fill="#8dd3c7" stroke="black" points="1774.64,-84.8 1771.64,-88.8 1750.64,-88.8 1747.64,-84.8 1607.36,-84.8 1607.36,-48.8 1774.64,-48.8 1774.64,-84.8"/>
<text text-anchor="middle" x="1691" y="-62.6" font-family="Times,serif" font-size="14.00">CheckoutsProductsModule</text>
</g>
<!-- CheckoutsProductsModule&#45;&gt;AppModule -->
<g id="edge3" class="edge">
<title>CheckoutsProductsModule&#45;&gt;AppModule</title>
<path fill="none" stroke="black" d="M1691,-84.83C1691,-105.57 1691,-136.8 1691,-136.8 1691,-136.8 1001.69,-136.8 1001.69,-136.8"/>
<polygon fill="black" stroke="black" points="1001.69,-133.3 991.69,-136.8 1001.69,-140.3 1001.69,-133.3"/>
</g>
<!-- ContragentsModule -->
<g id="node4" class="node">
<title>ContragentsModule</title>
<polygon fill="#8dd3c7" stroke="black" points="1589.7,-84.8 1586.7,-88.8 1565.7,-88.8 1562.7,-84.8 1462.3,-84.8 1462.3,-48.8 1589.7,-48.8 1589.7,-84.8"/>
<text text-anchor="middle" x="1526" y="-62.6" font-family="Times,serif" font-size="14.00">ContragentsModule</text>
</g>
<!-- ContragentsModule&#45;&gt;AppModule -->
<g id="edge4" class="edge">
<title>ContragentsModule&#45;&gt;AppModule</title>
<path fill="none" stroke="black" d="M1526,-84.91C1526,-104.14 1526,-131.8 1526,-131.8 1526,-131.8 1001.89,-131.8 1001.89,-131.8"/>
<polygon fill="black" stroke="black" points="1001.89,-128.3 991.89,-131.8 1001.89,-135.3 1001.89,-128.3"/>
</g>
<!-- DocumentModule -->
<g id="node5" class="node">
<title>DocumentModule</title>
<polygon fill="#8dd3c7" stroke="black" points="1443.87,-84.8 1440.87,-88.8 1419.87,-88.8 1416.87,-84.8 1326.13,-84.8 1326.13,-48.8 1443.87,-48.8 1443.87,-84.8"/>
<text text-anchor="middle" x="1385" y="-62.6" font-family="Times,serif" font-size="14.00">DocumentModule</text>
</g>
<!-- DocumentModule&#45;&gt;AppModule -->
<g id="edge5" class="edge">
<title>DocumentModule&#45;&gt;AppModule</title>
<path fill="none" stroke="black" d="M1385,-85.1C1385,-103.07 1385,-127.8 1385,-127.8 1385,-127.8 1001.71,-127.8 1001.71,-127.8"/>
<polygon fill="black" stroke="black" points="1001.71,-124.3 991.71,-127.8 1001.71,-131.3 1001.71,-124.3"/>
</g>
<!-- NomenklaturaModule -->
<g id="node6" class="node">
<title>NomenklaturaModule</title>
<polygon fill="#8dd3c7" stroke="black" points="1307.63,-84.8 1304.63,-88.8 1283.63,-88.8 1280.63,-84.8 1168.37,-84.8 1168.37,-48.8 1307.63,-48.8 1307.63,-84.8"/>
<text text-anchor="middle" x="1238" y="-62.6" font-family="Times,serif" font-size="14.00">NomenklaturaModule</text>
</g>
<!-- NomenklaturaModule&#45;&gt;AppModule -->
<g id="edge6" class="edge">
<title>NomenklaturaModule&#45;&gt;AppModule</title>
<path fill="none" stroke="black" d="M1238,-84.83C1238,-101.2 1238,-122.8 1238,-122.8 1238,-122.8 1001.88,-122.8 1001.88,-122.8"/>
<polygon fill="black" stroke="black" points="1001.88,-119.3 991.88,-122.8 1001.88,-126.3 1001.88,-119.3"/>
</g>
<!-- NoteProductsModule -->
<g id="node7" class="node">
<title>NoteProductsModule</title>
<polygon fill="#8dd3c7" stroke="black" points="1149.75,-84.8 1146.75,-88.8 1125.75,-88.8 1122.75,-84.8 1014.25,-84.8 1014.25,-48.8 1149.75,-48.8 1149.75,-84.8"/>
<text text-anchor="middle" x="1082" y="-62.6" font-family="Times,serif" font-size="14.00">NoteProductsModule</text>
</g>
<!-- NoteProductsModule&#45;&gt;AppModule -->
<g id="edge7" class="edge">
<title>NoteProductsModule&#45;&gt;AppModule</title>
<path fill="none" stroke="black" d="M1082,-84.99C1082,-99.98 1082,-118.8 1082,-118.8 1082,-118.8 1001.77,-118.8 1001.77,-118.8"/>
<polygon fill="black" stroke="black" points="1001.77,-115.3 991.77,-118.8 1001.77,-122.3 1001.77,-115.3"/>
</g>
<!-- NotesModule -->
<g id="node8" class="node">
<title>NotesModule</title>
<polygon fill="#8dd3c7" stroke="black" points="996.21,-84.8 993.21,-88.8 972.21,-88.8 969.21,-84.8 903.79,-84.8 903.79,-48.8 996.21,-48.8 996.21,-84.8"/>
<text text-anchor="middle" x="950" y="-62.6" font-family="Times,serif" font-size="14.00">NotesModule</text>
</g>
<!-- NotesModule&#45;&gt;AppModule -->
<g id="edge8" class="edge">
<title>NotesModule&#45;&gt;AppModule</title>
<path fill="none" stroke="black" d="M950,-84.91C950,-84.91 950,-103.79 950,-103.79"/>
<polygon fill="black" stroke="black" points="946.5,-103.79 950,-113.79 953.5,-103.79 946.5,-103.79"/>
</g>
<!-- ObjectsModule -->
<g id="node9" class="node">
<title>ObjectsModule</title>
<polygon fill="#8dd3c7" stroke="black" points="886.31,-84.8 883.31,-88.8 862.31,-88.8 859.31,-84.8 783.69,-84.8 783.69,-48.8 886.31,-48.8 886.31,-84.8"/>
<text text-anchor="middle" x="835" y="-62.6" font-family="Times,serif" font-size="14.00">ObjectsModule</text>
</g>
<!-- ObjectsModule&#45;&gt;AppModule -->
<g id="edge9" class="edge">
<title>ObjectsModule&#45;&gt;AppModule</title>
<path fill="none" stroke="black" d="M835,-84.99C835,-99.98 835,-118.8 835,-118.8 835,-118.8 898.16,-118.8 898.16,-118.8"/>
<polygon fill="black" stroke="black" points="898.16,-122.3 908.16,-118.8 898.16,-115.3 898.16,-122.3"/>
</g>
<!-- OrdersModule -->
<g id="node10" class="node">
<title>OrdersModule</title>
<polygon fill="#8dd3c7" stroke="black" points="765.64,-84.8 762.64,-88.8 741.64,-88.8 738.64,-84.8 668.36,-84.8 668.36,-48.8 765.64,-48.8 765.64,-84.8"/>
<text text-anchor="middle" x="717" y="-62.6" font-family="Times,serif" font-size="14.00">OrdersModule</text>
</g>
<!-- OrdersModule&#45;&gt;AppModule -->
<g id="edge10" class="edge">
<title>OrdersModule&#45;&gt;AppModule</title>
<path fill="none" stroke="black" d="M717,-84.83C717,-101.2 717,-122.8 717,-122.8 717,-122.8 898.08,-122.8 898.08,-122.8"/>
<polygon fill="black" stroke="black" points="898.08,-126.3 908.08,-122.8 898.08,-119.3 898.08,-126.3"/>
</g>
<!-- PeopleModule -->
<g id="node11" class="node">
<title>PeopleModule</title>
<polygon fill="#8dd3c7" stroke="black" points="649.65,-84.8 646.65,-88.8 625.65,-88.8 622.65,-84.8 552.35,-84.8 552.35,-48.8 649.65,-48.8 649.65,-84.8"/>
<text text-anchor="middle" x="601" y="-62.6" font-family="Times,serif" font-size="14.00">PeopleModule</text>
</g>
<!-- PeopleModule&#45;&gt;AppModule -->
<g id="edge11" class="edge">
<title>PeopleModule&#45;&gt;AppModule</title>
<path fill="none" stroke="black" d="M601,-85.1C601,-103.07 601,-127.8 601,-127.8 601,-127.8 898.25,-127.8 898.25,-127.8"/>
<polygon fill="black" stroke="black" points="898.25,-131.3 908.25,-127.8 898.25,-124.3 898.25,-131.3"/>
</g>
<!-- RealisationsModule -->
<g id="node12" class="node">
<title>RealisationsModule</title>
<polygon fill="#8dd3c7" stroke="black" points="533.98,-84.8 530.98,-88.8 509.98,-88.8 506.98,-84.8 406.02,-84.8 406.02,-48.8 533.98,-48.8 533.98,-84.8"/>
<text text-anchor="middle" x="470" y="-62.6" font-family="Times,serif" font-size="14.00">RealisationsModule</text>
</g>
<!-- RealisationsModule&#45;&gt;AppModule -->
<g id="edge12" class="edge">
<title>RealisationsModule&#45;&gt;AppModule</title>
<path fill="none" stroke="black" d="M470,-84.91C470,-104.14 470,-131.8 470,-131.8 470,-131.8 898.24,-131.8 898.24,-131.8"/>
<polygon fill="black" stroke="black" points="898.24,-135.3 908.24,-131.8 898.24,-128.3 898.24,-135.3"/>
</g>
<!-- ReportsModule -->
<g id="node13" class="node">
<title>ReportsModule</title>
<polygon fill="#8dd3c7" stroke="black" points="387.6,-84.8 384.6,-88.8 363.6,-88.8 360.6,-84.8 284.4,-84.8 284.4,-48.8 387.6,-48.8 387.6,-84.8"/>
<text text-anchor="middle" x="336" y="-62.6" font-family="Times,serif" font-size="14.00">ReportsModule</text>
</g>
<!-- ReportsModule&#45;&gt;AppModule -->
<g id="edge13" class="edge">
<title>ReportsModule&#45;&gt;AppModule</title>
<path fill="none" stroke="black" d="M336,-84.83C336,-105.57 336,-136.8 336,-136.8 336,-136.8 898.28,-136.8 898.28,-136.8"/>
<polygon fill="black" stroke="black" points="898.28,-140.3 908.28,-136.8 898.28,-133.3 898.28,-140.3"/>
</g>
<!-- TendersModule -->
<g id="node14" class="node">
<title>TendersModule</title>
<polygon fill="#8dd3c7" stroke="black" points="266.14,-84.8 263.14,-88.8 242.14,-88.8 239.14,-84.8 161.86,-84.8 161.86,-48.8 266.14,-48.8 266.14,-84.8"/>
<text text-anchor="middle" x="214" y="-62.6" font-family="Times,serif" font-size="14.00">TendersModule</text>
</g>
<!-- TendersModule&#45;&gt;AppModule -->
<g id="edge14" class="edge">
<title>TendersModule&#45;&gt;AppModule</title>
<path fill="none" stroke="black" d="M214,-85.09C214,-107.01 214,-140.8 214,-140.8 214,-140.8 898.32,-140.8 898.32,-140.8"/>
<polygon fill="black" stroke="black" points="898.32,-144.3 908.32,-140.8 898.32,-137.3 898.32,-144.3"/>
</g>
<!-- AppService -->
<g id="node16" class="node">
<title>AppService</title>
<ellipse fill="#fdb462" stroke="black" cx="81" cy="-66.8" rx="56.74" ry="18"/>
<text text-anchor="middle" x="81" y="-62.6" font-family="Times,serif" font-size="14.00">AppService</text>
</g>
<!-- AppService&#45;&gt;AppModule -->
<g id="edge15" class="edge">
<title>AppService&#45;&gt;AppModule</title>
<path fill="none" stroke="black" d="M81,-85.12C81,-108.46 81,-145.8 81,-145.8 81,-145.8 898.09,-145.8 898.09,-145.8"/>
<polygon fill="black" stroke="black" points="898.09,-149.3 908.09,-145.8 898.09,-142.3 898.09,-149.3"/>
</g>
</g>
</svg>
