<?xml version="1.0" encoding="UTF-8" standalone="no"?>
<!DOCTYPE svg PUBLIC "-//W3C//DTD SVG 1.1//EN"
 "http://www.w3.org/Graphics/SVG/1.1/DTD/svg11.dtd">
<!-- Generated by graphviz version 2.47.3 (20210619.1520)
 -->
<!-- Title: dependencies Pages: 1 -->
<svg width="370pt" height="174pt"
 viewBox="0.00 0.00 370.00 173.80" xmlns="http://www.w3.org/2000/svg" xmlns:xlink="http://www.w3.org/1999/xlink">
<g id="graph0" class="graph" transform="scale(1 1) rotate(0) translate(4 169.8)">
<title>dependencies</title>
<polygon fill="white" stroke="transparent" points="-4,4 -4,-169.8 366,-169.8 366,4 -4,4"/>
<text text-anchor="middle" x="181" y="-8.2" font-family="sans-serif" font-size="14.00">dependencies</text>
<g id="clust1" class="cluster">
<title>cluster_CheckoutsModule</title>
<polygon fill="none" stroke="black" stroke-dasharray="1,5" points="8,-32.8 8,-157.8 354,-157.8 354,-32.8 8,-32.8"/>
</g>
<g id="clust6" class="cluster">
<title>cluster_CheckoutsModule_providers</title>
<polygon fill="none" stroke="black" points="168,-40.8 168,-92.8 346,-92.8 346,-40.8 168,-40.8"/>
</g>
<g id="clust3" class="cluster">
<title>cluster_CheckoutsModule_imports</title>
<polygon fill="none" stroke="black" points="16,-40.8 16,-92.8 160,-92.8 160,-40.8 16,-40.8"/>
</g>
<!-- RealisationsModule -->
<g id="node1" class="node">
<title>RealisationsModule</title>
<polygon fill="#8dd3c7" stroke="black" points="151.98,-84.8 148.98,-88.8 127.98,-88.8 124.98,-84.8 24.02,-84.8 24.02,-48.8 151.98,-48.8 151.98,-84.8"/>
<text text-anchor="middle" x="88" y="-62.6" font-family="Times,serif" font-size="14.00">RealisationsModule</text>
</g>
<!-- CheckoutsModule -->
<g id="node2" class="node">
<title>CheckoutsModule</title>
<polygon fill="#8dd3c7" stroke="black" points="231.15,-149.8 228.15,-153.8 207.15,-153.8 204.15,-149.8 112.85,-149.8 112.85,-113.8 231.15,-113.8 231.15,-149.8"/>
<text text-anchor="middle" x="172" y="-127.6" font-family="Times,serif" font-size="14.00">CheckoutsModule</text>
</g>
<!-- RealisationsModule&#45;&gt;CheckoutsModule -->
<g id="edge1" class="edge">
<title>RealisationsModule&#45;&gt;CheckoutsModule</title>
<path fill="none" stroke="black" d="M132.33,-84.91C132.33,-84.91 132.33,-103.79 132.33,-103.79"/>
<polygon fill="black" stroke="black" points="128.83,-103.79 132.33,-113.79 135.83,-103.79 128.83,-103.79"/>
</g>
<!-- CheckoutsService -->
<g id="node3" class="node">
<title>CheckoutsService</title>
<ellipse fill="#fdb462" stroke="black" cx="257" cy="-66.8" rx="80.52" ry="18"/>
<text text-anchor="middle" x="257" y="-62.6" font-family="Times,serif" font-size="14.00">CheckoutsService</text>
</g>
<!-- CheckoutsService&#45;&gt;CheckoutsModule -->
<g id="edge2" class="edge">
<title>CheckoutsService&#45;&gt;CheckoutsModule</title>
<path fill="none" stroke="black" d="M203.78,-80.58C203.78,-80.58 203.78,-103.35 203.78,-103.35"/>
<polygon fill="black" stroke="black" points="200.28,-103.35 203.78,-113.35 207.28,-103.35 200.28,-103.35"/>
</g>
</g>
</svg>
